<?xml version="1.0" standalone="no"?>
<!DOCTYPE svg PUBLIC "-//W3C//DTD SVG 20010904//EN"
 "http://www.w3.org/TR/2001/REC-SVG-20010904/DTD/svg10.dtd">
<svg version="1.0" xmlns="http://www.w3.org/2000/svg"
 width="512.000000pt" height="512.000000pt" viewBox="0 0 512.000000 512.000000"
 preserveAspectRatio="xMidYMid meet">

<g transform="translate(0.000000,512.000000) scale(0.100000,-0.100000)"
fill="#000000" stroke="none">
<path d="M2485 4898 c-3 -8 -4 -115 -3 -238 l3 -225 75 0 75 0 0 235 0 235
-73 3 c-53 2 -74 -1 -77 -10z"/>
<path d="M1823 4732 c-29 -14 -53 -29 -53 -33 0 -15 190 -414 199 -417 13 -4
133 57 128 66 -2 4 -46 98 -97 210 -65 140 -98 202 -109 201 -9 0 -40 -12 -68
-27z"/>
<path d="M3120 4558 c-51 -112 -95 -206 -97 -210 -5 -9 115 -70 128 -66 9 3
199 402 199 417 0 9 -106 61 -123 61 -8 0 -55 -90 -107 -202z"/>
<path d="M1224 3808 c-48 -57 -97 -113 -108 -126 l-20 -23 149 -149 c82 -82
147 -151 145 -153 -3 -2 -41 -10 -85 -17 -213 -33 -433 -125 -645 -269 -88
-60 -304 -278 -372 -376 -239 -345 -334 -769 -263 -1173 90 -513 428 -950 900
-1164 193 -88 327 -121 543 -137 362 -27 750 83 1028 291 28 21 57 38 64 38 7
0 36 -17 64 -38 384 -287 929 -373 1406 -220 437 139 814 496 980 925 192 497
126 1039 -178 1478 -68 98 -284 316 -372 376 -212 144 -432 236 -645 269 -44
7 -82 15 -85 17 -2 2 63 71 145 153 l149 149 -20 23 c-11 13 -60 69 -108 126
l-88 102 -267 -1 -266 0 -85 -100 c-47 -55 -94 -112 -104 -126 l-19 -25 147
-147 c80 -80 146 -150 146 -154 0 -4 -12 -7 -27 -7 -40 -1 -195 -36 -288 -66
-113 -37 -306 -134 -402 -204 l-83 -59 -82 59 c-97 70 -290 167 -403 204 -93
30 -248 65 -287 66 -16 0 -28 3 -28 7 0 4 66 74 146 154 l147 147 -19 25 c-10
14 -57 71 -104 126 l-85 100 -266 0 -267 1 -88 -102z m580 -90 c20 -23 36 -44
36 -47 0 -4 -60 -66 -133 -139 l-132 -132 -134 134 -134 135 37 45 37 46 194
0 193 0 36 -42z m1972 -4 l37 -45 -134 -135 -134 -134 -132 132 c-73 73 -133
135 -133 139 0 3 16 24 36 47 l36 42 193 0 194 0 37 -46z m-1916 -529 c292
-66 513 -186 720 -394 167 -167 271 -333 344 -543 128 -374 88 -817 -106
-1155 -47 -83 -42 -84 -118 13 l-50 62 36 73 c88 174 127 346 126 554 0 206
-38 367 -130 550 -59 120 -118 201 -227 313 -415 431 -1097 492 -1591 144
-248 -175 -419 -429 -495 -734 -20 -81 -23 -118 -24 -278 0 -159 4 -198 23
-275 27 -108 62 -206 98 -277 263 -521 861 -794 1420 -647 148 39 250 86 411
189 22 14 26 12 82 -50 33 -36 60 -67 60 -70 1 -9 -126 -90 -212 -135 -96 -51
-227 -99 -347 -126 -121 -29 -392 -36 -520 -15 -579 95 -1036 518 -1169 1082
-91 390 -9 817 217 1133 234 327 549 526 942 596 104 19 409 13 510 -10z
m1900 11 c516 -85 944 -435 1119 -915 257 -704 -72 -1481 -757 -1789 -204 -92
-386 -127 -627 -119 -216 6 -366 41 -559 131 -274 126 -544 395 -674 668 -201
424 -186 916 41 1315 46 83 41 83 118 -13 l50 -63 -39 -78 c-46 -91 -84 -206
-108 -318 -22 -108 -22 -342 0 -450 119 -575 583 -981 1157 -1012 206 -11 410
31 604 126 290 143 515 389 620 679 58 160 70 234 70 432 -1 207 -15 291 -80
457 -144 366 -481 658 -860 746 -360 84 -668 25 -1012 -193 -22 -14 -26 -11
-82 50 -33 36 -60 67 -60 70 -1 8 168 115 234 147 112 56 295 113 424 132 92
14 329 12 421 -3z m-2070 -326 c168 -19 336 -78 467 -163 l72 -46 -54 -93
c-275 -480 -274 -1092 4 -1563 l50 -86 -70 -45 c-201 -131 -448 -190 -682
-165 -149 16 -240 42 -372 106 -323 156 -538 442 -600 794 -79 453 150 920
558 1136 205 109 410 150 627 125z m1968 -1 c419 -46 773 -326 911 -721 156
-448 7 -938 -375 -1228 -85 -64 -263 -152 -364 -179 -292 -79 -614 -31 -862
128 l-77 50 50 86 c277 470 279 1084 5 1561 l-55 95 72 46 c154 100 365 165
560 172 21 0 81 -4 135 -10z m-1065 -696 c54 -148 62 -197 62 -383 0 -140 -4
-189 -19 -245 -25 -93 -66 -205 -76 -205 -10 0 -51 112 -76 205 -15 56 -19
105 -19 245 0 140 4 189 19 245 25 93 66 205 76 205 4 0 19 -30 33 -67z"/>
</g>
</svg>
